<svg xmlns="http://www.w3.org/2000/svg" version="1.1" xmlns:xlink="http://www.w3.org/1999/xlink" xmlns:svgjs="http://svgjs.com/svgjs" width="2000" height="1000" preserveAspectRatio="none" viewBox="0 0 2000 1000"><g mask="url(&quot;#SvgjsMask1024&quot;)" fill="none"><rect width="2000" height="1000" x="0" y="0" fill="rgba(76, 0, 51, 1)"></rect><path d="M 0,213 C 57.2,251.2 171.6,419 286,404 C 400.4,389 457.6,147.2 572,138 C 686.4,128.8 743.6,377.4 858,358 C 972.4,338.6 1029.6,48.8 1144,41 C 1258.4,33.2 1315.6,295.4 1430,319 C 1544.4,342.6 1602,144.4 1716,159 C 1830,173.6 1943.2,345.4 2000,392L2000 1000L0 1000z" fill="rgba(121, 2, 82, 1)"></path><path d="M 0,511 C 66.8,584.4 200.4,852.8 334,878 C 467.6,903.2 534.4,638.8 668,637 C 801.6,635.2 868.4,884.4 1002,869 C 1135.6,853.6 1202.4,541.4 1336,560 C 1469.6,578.6 1537.2,971.8 1670,962 C 1802.8,952.2 1934,601.2 2000,511L2000 1000L0 1000z" fill="rgba(175, 1, 113, 1)"></path></g><defs><mask id="SvgjsMask1024"><rect width="2000" height="1000" fill="#ffffff"></rect></mask></defs></svg>